<svg width="455" height="140" viewBox="0 0 455 140" fill="none" xmlns="http://www.w3.org/2000/svg">
<path d="M54.0223 93.5809H44.4388C40.626 93.5809 36.839 93.5552 33.052 93.5294C24.8854 93.4779 16.7704 93.4006 8.88717 93.3748C2.80732 93.3233 0.64331 85.8523 6.36249 82.8381C13.1894 80.1074 14.6063 78.0979 17.0022 69.3388C20.0937 58.4157 22.979 48.2397 26.6888 33.6326C28.3118 27.2694 27.8223 25.0796 23.1851 21.8593C20.4286 18.974 22.1031 12.9972 27.4616 12.8684C35.1902 12.8169 42.3779 12.8169 50.4156 12.8684C55.8514 12.9972 57.5259 20.3136 52.9145 23.0959C46.5513 26.1101 44.5419 28.0165 42.8931 34.019C38.8742 48.7807 36.0919 59.137 33.1808 70.0344C30.45 80.2362 31.7124 82.5032 39.4925 82.5032C40.0593 82.5032 40.626 82.4775 41.167 82.4775C49.4367 82.2971 51.5749 80.2362 58.0412 69.3903C61.5706 63.4651 70.1236 66.7884 67.7792 73.6669C66.182 78.1495 64.4817 82.7351 62.6268 87.398C60.8235 91.7261 58.4534 93.5036 54.0223 93.5809ZM85.586 94.7402C71.2108 94.7402 61.9106 81.4728 67.7844 61.4814C72.7565 44.092 86.0755 32.4991 100.992 32.4991C111.503 32.4991 117.943 39.6094 114.903 49.5536C111.606 60.2706 97.9002 66.2474 85.4829 69.3131C82.984 69.9056 82.443 71.2967 82.5718 73.976C82.8294 79.8497 85.2768 82.2971 89.811 82.2971C93.4692 82.2971 96.3545 80.6999 101.455 74.3367C105.886 68.7463 113.564 74.8777 109.802 80.3908C102.975 90.3607 94.0359 94.7402 85.586 94.7402ZM86.0497 56.3547C85.3799 58.1066 86.5134 59.0598 88.2137 58.5188C93.6237 56.7927 97.3077 53.727 99.1626 47.879C100.373 44.0147 99.6005 42.5978 97.6426 42.5978C93.6495 42.5978 89.0123 48.5231 86.0497 56.3547ZM91.8513 121.352C80.6963 117.308 88.2704 102.598 97.5963 106.72C103.187 109.734 106.484 109.141 110.761 91.52C115.114 73.3835 117.845 62.7437 120.602 50.2491C121.246 47.3638 121.297 45.9984 119.005 45.0194L118.335 44.7361C113.363 42.6236 114.702 34.7404 120.164 33.9933L120.911 33.8902C124.08 33.4523 124.775 32.7825 126.063 29.4334C133.431 8.43731 152.856 0.94055 162.208 6.17025C171.611 11.3742 163.109 25.7237 153.217 19.618C148.193 15.9598 144.612 16.9903 141.881 26.8829L140.928 30.3351C140.413 32.2415 139.898 34.0963 143.221 34.0963C144.432 34.0963 145.952 33.8902 147.162 33.9933C154.968 34.6631 153.01 44.9164 147.008 45.0967C144.457 45.174 142.757 45.0452 141.057 45.0967C138.919 45.174 136.986 46.5136 136.162 50.0173C133.199 62.7695 131.061 71.1164 127.583 85.7493C120.061 117.643 101.358 124.882 91.8513 121.352ZM149.641 94.7402C144.437 94.7402 138.28 91.2623 142.788 76.14C143.896 72.4045 146.395 62.3573 149.615 50.7644C150.852 46.256 149.873 45.6377 147.915 44.633L147.168 44.2466C143.278 42.2371 144.36 35.0238 149.254 34.2767L150.774 34.0448C153.196 33.6841 154.407 32.9886 154.87 31.2625L155.746 28.0165C156.39 25.6464 157.344 24.1779 159.662 22.5292C160.822 21.6532 162.908 20.597 164.016 19.8499C168.138 17.0418 172.646 20.0045 171.796 24.6674C171.229 26.8572 170.74 28.8151 170.147 31.2367C169.684 33.0916 170.482 33.9418 172.183 34.0706C173.703 34.1221 175.248 34.019 177.18 34.0448C185.244 34.1221 182.951 45.3286 175.738 45.1482C173.445 45.0967 171.564 45.0967 169.838 45.0967C167.468 45.0194 166.051 46.1787 165.253 49.1414L160.126 68.1538C159.379 70.9876 160.229 72.1727 163.964 72.4818C167.314 72.7652 170.07 76.681 167.752 80.5711C162.264 89.6393 155.102 94.7402 149.641 94.7402ZM222.918 94.7402C199.578 94.7402 187.109 76.0885 193.704 50.584C199.398 28.2483 217.328 11.3742 242.343 11.3742C249.273 11.3742 255.559 12.6365 261.613 14.9036C265.864 16.6296 267.641 19.1801 267.023 24.4356C266.482 28.0938 265.812 31.8035 265.245 36.4407C264.215 43.113 253.936 43.9117 253.549 35.7451C253.137 26.7541 247.985 22.5549 239.612 22.5549C226.371 22.5549 216.529 34.0963 211.403 52.4389C206.276 70.833 211.197 83.6883 224.258 83.7913C233.146 83.8686 239.638 78.201 246.491 66.8141C250.02 60.9662 258.496 64.3667 256.358 71.0649C254.76 75.6505 253.189 79.6952 251.617 83.7913C249.969 87.836 247.727 89.6393 242.807 91.2108C237.397 92.9369 230.544 94.7402 222.918 94.7402ZM270.944 94.7402C260.15 94.7402 257.393 84.8218 262.262 70.6785C263.859 66.1186 265.379 62.1512 266.255 59.7038C267.492 56.2517 266.178 55.0924 263.447 54.809C260.33 54.4741 257.007 51.0478 259.918 46.2818C266.719 35.2041 273.649 32.4991 278.029 32.4991C287.226 32.4991 287.509 42.4432 284.031 52.4389C282.537 56.6124 280.682 61.6617 279.214 65.964C277.539 70.833 277.385 74.414 280.502 74.414C285.165 74.414 292.687 64.4698 298.406 46.2818C299.308 43.4222 299.643 41.8507 300.184 39.7125C301.189 35.8997 303.069 33.8129 307.423 32.834L307.887 32.7309C313.632 31.4428 316.826 35.3587 315.255 40.4853C311.957 51.2539 309.278 60.5024 307.526 66.943C306.624 70.2405 307.938 71.8377 311.88 72.6364C315.229 73.3062 317.135 76.9386 314.714 80.8802C307.938 91.8291 302.837 94.7402 297.608 94.7402C293.409 94.7402 290.755 92.6535 289.544 90.5668C288.9 89.459 288.694 88.7892 288.514 88.1967C287.921 86.213 285.989 85.775 284.418 87.4753C280.115 92.164 275.246 94.7402 270.944 94.7402ZM323.349 94.5084C317.398 95.3585 314.487 91.8549 315.93 86.7025C319.871 73.4092 322.551 64.0318 323.916 59.0855C324.689 56.329 323.71 54.7317 320.361 54.7317C316.934 54.7317 313.688 50.9447 316.471 46.3591C323.272 35.4102 328.321 32.4991 334.066 32.4991C337.493 32.4991 339.863 34.1221 341.357 36.2603C342.078 37.2908 342.542 38.3986 342.774 39.5064C343.083 40.9233 344.629 41.6704 346.02 40.1762C349.575 36.4407 354.264 32.4991 358.334 32.4991C364.44 32.4991 367.66 38.1925 366.114 43.3964C364.826 47.9048 360.704 50.8159 355.784 50.919C351.584 50.9962 348.776 51.9237 346.2 55.1182C343.083 58.8537 340.532 62.9756 337.673 68.8751C336.617 71.0906 335.818 72.894 334.762 75.496C333.577 78.2267 333.036 80.5711 330.975 87.5011C329.712 91.7776 327.935 93.8643 324.071 94.4053L323.349 94.5084ZM377.996 92.4732C372.895 97.033 367.382 94.4311 367.382 88.5831C367.279 82.3229 367.201 75.3929 366.738 59.2659C366.635 54.3711 366.248 51.2281 365.063 51.2281C363.801 51.2281 363.183 52.5162 360.168 54.0619C355.892 56.2775 350.688 51.8206 353.651 46.5394C359.859 35.642 365.965 32.4991 370.422 32.4991C378.691 32.4991 381.01 41.2324 381.293 50.4552C381.551 60.8116 381.654 64.5986 381.783 69.4419C381.834 72.0438 384.282 72.5076 385.982 70.4466C387.322 68.8236 388.507 67.2263 389.537 65.6806C391.933 62.0739 393.453 58.7249 394.329 56.1229C395.359 53.0572 394.896 51.6145 392.165 48.858C389.614 46.2303 388.816 42.4432 389.743 39.223C390.877 35.3071 394.252 32.4991 398.708 32.4991C408.24 32.4991 409.374 44.092 406.592 53.5209C404.814 59.8069 401.182 66.6596 395.437 74.0275C393.762 76.1915 391.933 78.3813 389.898 80.6226C386.471 84.4354 382.504 88.377 377.996 92.4732ZM421.771 94.7402C407.395 94.7402 398.095 81.4728 403.969 61.4814C408.941 44.092 422.26 32.4991 437.176 32.4991C447.687 32.4991 454.128 39.6094 451.088 49.5536C447.79 60.2706 434.085 66.2474 421.668 69.3131C419.169 69.9056 418.628 71.2967 418.756 73.976C419.014 79.8497 421.461 82.2971 425.996 82.2971C429.654 82.2971 432.539 80.6999 437.64 74.3367C442.071 68.7463 449.748 74.8777 445.987 80.3908C439.16 90.3607 430.221 94.7402 421.771 94.7402ZM422.234 56.3547C421.564 58.1066 422.698 59.0598 424.398 58.5188C429.808 56.7927 433.492 53.727 435.347 47.879C436.558 44.0147 435.785 42.5978 433.827 42.5978C429.834 42.5978 425.197 48.5231 422.234 56.3547Z" fill="black"/>
<path d="M156.774 133.016C153.516 133.016 150.998 131.949 149.465 129.95C147.631 127.733 149 125.324 150.998 125.324C152.257 125.324 153.024 126.063 153.516 127.049C154.119 128.281 155.405 128.855 156.938 128.855C158.526 128.855 159.813 128.253 159.813 126.939C159.813 125.954 159.073 125.461 157.623 125.16L154.611 124.558C151.436 123.928 148.835 122.368 148.835 118.973C148.835 115.223 152.23 112.814 156.829 112.814C160.059 112.814 162.386 113.936 163.399 115.332C165.205 117.522 163.837 119.822 161.92 119.822C160.743 119.822 160.004 119.165 159.484 118.207C159.046 117.385 158.115 116.865 156.637 116.865C155.077 116.865 153.9 117.495 153.9 118.617C153.9 119.63 154.803 119.986 156.363 120.26L159.101 120.78C162.194 121.327 164.904 122.86 164.904 126.501C164.904 130.142 162.222 133.016 156.774 133.016ZM178.377 133.016C172.765 133.016 168.604 129.403 168.604 122.915C168.604 116.537 172.765 112.814 178.377 112.814C183.989 112.814 188.314 116.674 188.314 122.915C188.314 129.293 183.989 133.016 178.377 133.016ZM173.887 122.915C173.887 126.72 175.667 128.746 178.377 128.746C181.087 128.746 183.003 126.748 183.003 122.915C183.003 119.137 181.087 117.084 178.377 117.084C175.667 117.084 173.887 119.137 173.887 122.915ZM195.379 132.962C193.736 132.962 192.833 131.921 192.833 130.033V116.181C192.833 114.347 193.736 113.334 195.379 113.334H204.905C206.493 113.334 207.396 114.1 207.396 115.469C207.396 116.838 206.493 117.604 204.905 117.604H197.925V121.245H204.358C205.946 121.245 206.849 122.039 206.849 123.381C206.849 124.749 205.946 125.516 204.358 125.516H197.925V130.033C197.925 131.921 197.021 132.962 195.379 132.962ZM218.657 132.962C217.015 132.962 216.139 131.921 216.139 130.033V117.604H212.361C210.8 117.604 209.87 116.865 209.87 115.497C209.87 114.128 210.8 113.334 212.361 113.334H224.926C226.514 113.334 227.417 114.1 227.417 115.469C227.417 116.838 226.514 117.604 224.926 117.604H221.23V130.033C221.23 131.921 220.299 132.962 218.657 132.962ZM237.367 132.962C235.478 132.962 233.972 131.839 233.534 129.923L230.304 116.482C229.729 114.128 231.152 112.869 232.631 112.869C234.136 112.869 235.012 113.717 235.368 115.524L237.148 124.037C237.367 125.215 237.558 126.063 237.722 127.377C237.914 126.063 238.078 125.215 238.352 124.037L240.214 115.935C240.624 113.991 242.102 112.869 244.019 112.869C245.935 112.869 247.44 113.991 247.824 115.935L249.521 124.037C249.767 125.215 249.932 126.063 250.123 127.377C250.315 126.063 250.452 125.215 250.671 124.037L252.477 115.524C252.806 113.717 253.682 112.869 255.133 112.869C256.556 112.869 257.925 113.991 257.377 116.373L254.065 129.868C253.572 131.812 252.094 132.962 250.123 132.962C248.207 132.962 246.647 131.812 246.263 129.868L244.402 120.807C244.21 119.959 244.101 119.274 243.964 118.042C243.8 119.274 243.663 119.959 243.444 120.807L241.199 129.923C240.734 131.839 239.283 132.962 237.367 132.962ZM262.929 132.962C261.505 132.962 259.835 131.757 260.821 129.157L265.912 115.743C266.597 113.881 267.938 112.869 269.991 112.869C272.099 112.869 273.386 113.881 274.07 115.743L279.162 129.129C280.147 131.757 278.477 132.962 277.026 132.962C275.63 132.962 274.809 132.14 274.18 130.197L273.55 128.308H266.35L265.693 130.224C265.091 132.168 264.297 132.962 262.929 132.962ZM267.774 124.174H272.126L270.676 119.877C270.374 118.918 270.128 118.179 269.964 117.468C269.8 118.179 269.526 118.918 269.225 119.904L267.774 124.174ZM285.942 132.962C284.327 132.962 283.451 131.921 283.451 130.06V116.181C283.451 114.347 284.354 113.334 285.997 113.334H292.676C296.426 113.334 299.246 114.949 299.246 118.535C299.246 121.218 297.412 122.724 295.468 123.271C297.877 123.654 298.917 125.16 298.917 127.569V130.005C298.917 131.921 297.987 132.962 296.317 132.962C294.702 132.962 293.798 131.921 293.798 130.005V128.007C293.798 126.118 292.977 125.461 291.088 125.461H288.46V130.06C288.46 131.921 287.53 132.962 285.942 132.962ZM288.46 121.382H291.581C293.141 121.382 294.127 120.835 294.127 119.411C294.127 118.015 293.141 117.495 291.581 117.495H288.46V121.382ZM306.412 132.496C304.77 132.496 303.866 131.483 303.866 129.649V116.181C303.866 114.347 304.77 113.334 306.412 113.334H315.939C317.499 113.334 318.43 114.1 318.43 115.469C318.43 116.838 317.499 117.604 315.939 117.604H308.958V120.753H315.555C317.088 120.753 317.964 121.492 317.964 122.806C317.964 124.12 317.088 124.886 315.473 124.886H308.958V128.226H316.377C317.937 128.226 318.868 128.992 318.868 130.361C318.868 131.73 317.937 132.496 316.377 132.496H306.412Z" fill="black"/>
</svg>
