<svg width="281" height="242" viewBox="0 0 281 242" fill="none" xmlns="http://www.w3.org/2000/svg">
<path d="M4.19238 237.414C4.97266 237.317 7.0206 234.039 7.60737 233.42C12.3142 228.452 17.0727 223.851 22.182 219.303C28.0346 214.092 33.423 209.605 40.9949 207.015C48.4074 204.479 57.0129 202.289 64.8693 202.289C68.68 202.289 72.4283 202.837 76.09 202.837" stroke="black" stroke-width="7.75344" stroke-linecap="round"/>
<path d="M66.2109 202.837C67.4417 200.2 70.3178 198.099 72.1262 195.824C73.6213 193.944 74.9583 191.94 76.6388 190.214C78.8123 187.982 79.9572 185.409 81.8223 182.957C85.8536 177.659 89.9323 172.152 93.7137 166.675C96.0656 163.269 97.7681 160.089 99.1411 156.186C100.729 151.672 102.647 147.785 103.41 143.014C103.714 141.11 103.91 138.316 103.41 136.428C102.666 133.619 98.3732 133.166 96.336 131.702C94.3397 130.267 91.2539 128.825 90.0853 126.488C88.1608 122.639 87.8889 117.955 87.3716 113.743C86.4913 106.574 84.7691 98.1692 89.2316 92.0333C91.0519 89.5304 92.4396 89.777 95.3603 89.777C99.7169 89.777 104.391 89.1395 108.41 91.1491C108.773 91.3304 110.915 93.1601 111.185 92.2162C111.555 90.9227 109.461 90.6584 109.02 89.777" stroke="black" stroke-width="7.75344" stroke-linecap="round"/>
<path d="M109.021 89.7769C110.146 84.3723 115.097 78.7682 117.924 74.1655C121.974 67.5717 125.924 60.5167 128.748 53.2793C131.667 45.8001 133.766 37.7749 137.133 30.5025C140.748 22.6939 146.866 13.334 155.458 10.47C161.203 8.55498 167.495 8.54907 173.478 8.54907C177.424 8.54907 180.65 8.6306 183.693 11.2933C186.692 13.9172 189.726 16.918 193.846 17.7573C197.771 18.5568 201.702 18.8735 205.616 19.5258" stroke="black" stroke-width="7.75344" stroke-linecap="round"/>
<path d="M182.564 6.35477C190.826 6.35477 198.664 6.27082 206.774 5.2571C213.074 4.46969 219.059 4.15942 225.435 4.15942C230.236 4.15942 232.027 4.97432 235.588 8.30619C243.113 15.3451 248.312 23.9919 250.62 34.0405C251.524 37.9759 251.169 42.1705 251.169 46.1759C251.169 51.9896 251.358 57.8372 251.139 63.6472C250.944 68.798 249.231 73.4955 248.547 78.5573C248.117 81.7387 246.704 87.3068 248.303 90.3268C249.206 92.0319 252.501 89.903 253.608 89.534C257.572 88.2128 266.067 87.2237 269.525 90.0524C272.964 92.8663 274.635 94.3427 276.141 98.5593C277.119 101.298 276.964 103.835 276.964 106.731C276.964 114.364 276.871 123.322 273.366 130.331C271.108 134.848 265.359 138.422 261.292 141.094C256.211 144.433 250.389 146.534 245.437 149.967C237.139 155.719 228.693 161.276 220.831 167.621C214.533 172.703 209.404 177.789 201.896 181.007C200.123 181.766 198.235 182.833 196.285 183.05C195.48 183.139 194.281 183.065 193.663 183.751C192.964 184.528 195.639 186.893 196.011 187.471C200.04 193.738 203.35 200.094 211.653 200.094C216.147 200.094 220.57 201.192 225.099 201.192C227.688 201.192 229.985 202.289 232.509 202.289C233.561 202.289 235.314 201.966 235.314 202.625C235.314 204.998 237.828 207.473 239.095 209.302C241.352 212.563 243.516 215.797 246.351 218.633C247.483 219.764 249.147 220.069 250.071 221.224C252.584 224.366 252.896 227.731 253.913 231.927" stroke="black" stroke-width="7.75344" stroke-linecap="round"/>
<path d="M112.878 113.898C112.878 112.505 112.448 117.06 111.232 117.74C107.978 119.559 109.03 112.652 109.921 111.245C112.967 106.437 114.757 112.41 112.878 113.349" stroke="black" stroke-width="7.75344" stroke-linecap="round"/>
<path d="M257.771 113.898C257.771 112.505 257.341 117.06 256.125 117.74C252.87 119.559 253.922 112.652 254.813 111.245C257.859 106.437 259.65 112.41 257.771 113.349" stroke="black" stroke-width="7.75344" stroke-linecap="round"/>
<path d="M173.923 143.601C176.458 143.601 178.25 144 180.686 144.741C186.4 146.48 193.868 146.553 199.731 145.829C202.835 145.446 206.434 144.448 209.474 143.601C211.472 143.044 213.21 142.505 214.993 141.502C216.304 140.764 218.494 139.811 219.165 138.47" stroke="black" stroke-width="7.75344" stroke-linecap="round"/>
</svg>
