<svg width="411" height="120" viewBox="0 0 411 120" fill="none" xmlns="http://www.w3.org/2000/svg">
<path d="M396.71 53.9697C387.803 53.4426 378.59 53.4426 369.536 53.9697C353.728 54.9258 350.62 73.7787 363.394 79.54C366.93 81.1335 368.581 83.1806 368.581 85.6567V86.7477C368.581 90.8542 366.44 93.1341 362.868 93.6612C361.057 93.9309 359.699 93.9309 357.484 93.9309C338.14 93.9309 329.221 81.6238 329.625 58.309C329.918 39.7503 336.391 27.1491 354.646 27.1491C366.404 27.1491 371.114 31.2187 375.506 42.3C381.086 56.3232 401.714 51.1626 401.714 37.0413C401.714 30.2013 401.151 25.3962 399.793 20.8975C397.383 12.7949 393.945 7.90392 384.512 4.79038C375.47 1.81167 365.865 0.585876 356.554 0.585876C319.702 0.585876 299.245 23.3123 294.84 49.14C294.84 46.7865 294.865 44.2 294.889 41.2336C294.926 35.6807 295.746 30.2749 300.126 25.7762C308.874 16.7175 305.485 3.33168 292.883 2.49813C284.171 1.93426 278.592 1.89748 269.636 2.49813C257.022 3.33168 250.819 16.7175 260.289 25.6536C265.44 30.52 267.422 35.5458 267.52 41.6258C267.691 52.2781 267.691 64.3768 267.581 72.9206C267.446 85.0561 260.68 92.5703 251.773 92.5703C241.434 92.5703 234.766 86.1226 234.472 72.9206C234.179 60.3194 234.081 51.42 234.142 42.3246C234.179 36.9065 235.231 31.28 242.951 24.3052C250.439 17.5265 244.995 3.0375 232.417 2.5104C222.812 2.08137 213.367 1.94653 203.493 2.5104C193.252 3.06201 187.845 11.9246 189.741 19.2181C182.045 9.62007 167.889 3.28266 148.607 2.5104C136.164 2.00782 128.003 1.9833 118.166 2.5104C109.479 2.97621 104.609 8.89685 104.34 15.1239C101.917 10.3433 98.2225 7.08263 91.2729 4.79038C82.2312 1.81167 72.6267 0.585876 63.3158 0.585876C21.3861 0.585876 0.696533 29.9929 0.696533 59.9271C0.696533 92.4354 21.9244 119.82 61.9699 119.82C75.2083 119.82 86.697 116.841 98.4549 111.117C100.939 109.903 103.043 108.273 104.695 106.25C105.392 112.159 109.968 117.638 117.786 118.03C128.443 118.557 135.442 118.655 148.753 118.03C163.215 117.368 166.849 99.0425 155.385 93.1587C150.699 90.7439 148.386 88.2309 148.386 85.9142V85.6567C148.386 84.1612 149.145 83.3032 150.405 83.3032H150.54C152.094 83.3032 153.513 84.7864 155.519 87.8387C160.573 95.4509 164.108 102.095 167.938 107.721C172.698 114.672 177.738 117.773 187.147 117.773H197.841C206.699 117.773 211.581 111.166 211.25 104.448C219.313 114.193 231.989 119.82 248.237 119.82C278.812 119.82 294.437 99.9374 294.902 71.7806C299.49 98.8219 320.13 119.82 355.196 119.82C368.435 119.82 379.923 116.841 391.681 111.117C397.787 108.138 401.714 102.585 401.714 95.0096V87.1768C401.714 82.7761 402.644 79.8342 405.177 78.0813C414.316 71.7316 410.89 54.791 396.698 53.9697H396.71ZM103.496 53.9697C94.5764 53.4426 85.3756 53.4426 76.3217 53.9697C60.5139 54.9258 57.4062 73.7787 70.1796 79.54C73.7156 81.1335 75.3673 83.1806 75.3673 85.6567V86.7477C75.3673 90.8542 73.2262 93.1341 69.6535 93.6612C67.8427 93.9309 66.4846 93.9309 64.2701 93.9309C44.9264 93.9309 36.007 81.6238 36.4108 58.309C36.7044 39.7503 43.1768 27.1491 61.4315 27.1491C73.1895 27.1491 77.9 31.2187 82.2924 42.3C87.8716 56.3232 108.5 51.1626 108.5 37.0413C108.5 31.6478 108.145 27.5291 107.338 23.8271C107.448 23.9497 107.546 24.0846 107.656 24.2072C114.226 31.513 116.171 34.8594 116.306 42.0671C116.453 50.4026 116.477 57.3652 116.428 63.7884C114.887 58.7258 110.507 54.3742 103.484 53.9697H103.496ZM109.919 94.1884C109.405 94.5561 108.94 94.9606 108.512 95.3774C108.512 95.2548 108.512 95.1322 108.512 95.0096V87.1768C108.512 82.7761 109.442 79.8342 111.975 78.0813C114.091 76.6103 115.535 74.5632 116.318 72.2832C116.281 74.5877 116.233 76.8677 116.171 79.1722C116.012 87.3116 114.128 91.1116 109.895 94.1884H109.919ZM155.054 49.3729C151.555 50.3658 148.974 48.4536 148.974 41.5033V35.0187C149.072 30.0297 151.543 28.4729 154.651 29.1594C158.982 30.1155 161.417 34.0504 161.417 39.211C161.417 43.6729 160.328 47.8774 155.042 49.3607L155.054 49.3729ZM200.275 91.5406C197.767 90.7438 195.883 89.2974 192.849 85.5832C190.708 82.9354 189.056 80.7903 186.242 76.6226C182.375 70.8613 182.51 67.6865 187.037 61.9742C193.668 53.5774 196.385 45.8304 196.385 37.9975C196.385 33.4375 195.406 29.1349 193.546 25.2123C199.933 31.8562 201.45 35.791 201.523 42.4716C201.585 53.6878 201.621 62.7097 201.352 72.1361C201.132 80.1651 202.368 87.4219 204.913 93.7348C203.579 92.8645 202.049 92.1167 200.275 91.5528V91.5406Z" fill="black"/>
</svg>
